<svg width="145" height="48" viewBox="0 0 145 48" fill="none" xmlns="http://www.w3.org/2000/svg">
<path fill-rule="evenodd" clip-rule="evenodd" d="M6 6.56763H11.296V21.0861L19.6574 16.6787L28.0187 21.0861V6.56763H33.3147V41.0881H28.0187V26.5306L19.6574 22.1232L11.296 26.5306V41.0881H6V6.56763ZM111.467 30.5241L111.554 29.1441L111.553 29.1142C111.357 22.5063 106.204 17.3939 99.5814 17.3939C92.8657 17.3939 87.5635 22.7425 87.5635 29.3655C87.5635 35.9884 92.8193 41.337 99.6278 41.337C103.822 41.337 107.509 39.2527 109.611 35.8548L105.636 33.2957C104.309 35.3535 102.072 36.6066 99.5814 36.6066C96.0216 36.6066 93.0276 34.0147 92.5023 30.5241H111.467ZM99.5814 22.1244C102.446 22.1244 104.824 23.7668 105.925 26.1649H93.1535C94.292 23.7381 96.7081 22.1244 99.5814 22.1244ZM123.074 18.7456C122.135 19.2443 121.341 19.8915 120.667 20.6586V18.0744H115.371V41.0881H120.667V29.5813C120.667 24.1403 124.807 22.6475 126.878 22.5813C128.163 22.5813 129.299 22.8833 130.296 23.4922C131.259 24.0676 132.029 24.8826 132.607 25.9374C133.151 26.9922 133.425 28.2052 133.425 29.5813V41.0881H138.866V29.6292C138.866 27.3614 138.384 25.3285 137.421 23.5402C136.425 21.7182 135.096 20.2799 133.425 19.2251C131.726 18.1367 129.829 17.5949 127.744 17.5949C125.977 17.5949 124.422 17.9785 123.074 18.7456ZM54.9074 20.6587C54.2334 19.8915 53.439 19.2443 52.5002 18.7457C51.1521 17.9785 49.597 17.595 47.8301 17.595C45.7454 17.595 43.8485 18.1367 42.1489 19.2251C40.4783 20.2799 39.1495 21.7183 38.1529 23.5402C37.19 25.3285 36.7085 27.3614 36.7085 29.6292C36.7085 31.897 37.19 33.8963 38.1529 35.7183C39.1495 37.5066 40.4783 38.9306 42.1489 39.9854C43.8485 41.0402 45.7454 41.5676 47.8301 41.5676C49.597 41.5676 51.1665 41.1984 52.5483 40.4648C53.4727 39.9518 54.2575 39.3141 54.9074 38.5566V41.0881H60.2034V18.0744H54.9074V20.6587ZM53.4149 34.6155C52.2257 35.9244 50.6562 36.5813 48.6967 36.5813C47.4112 36.5813 46.275 36.2936 45.2784 35.7183C44.3155 35.1093 43.5451 34.2799 42.9674 33.2251C42.4234 32.1703 42.1489 30.9573 42.1489 29.5813C42.1489 28.2052 42.4234 26.9922 42.9674 25.9374C43.5451 24.8826 44.3155 24.0676 45.2784 23.4922C46.275 22.8833 47.4112 22.5813 48.6967 22.5813C49.9822 22.5813 51.1521 22.8833 52.115 23.4922C53.1116 24.0676 53.8819 24.8826 54.426 25.9374C54.97 26.9922 55.2444 28.2052 55.2444 29.5813C55.2444 31.6285 54.633 33.3066 53.4149 34.6155ZM69.2114 18.0744L75.5233 32.7936L81.8737 18.0744H87.5067L76.9629 41.0881H73.8816L63.3377 18.0744H69.2114ZM22.3332 35.6047H16.8887V41.0491H22.3332V35.6047Z" fill="black"/>
</svg>
