<svg width="105" height="27" viewBox="0 0 105 27" fill="none" xmlns="http://www.w3.org/2000/svg">
<path d="M40.7468 9.34311L35.4573 16.1532H40.9357V17.2663H33.7559V16.3598L39.0258 9.50517H34.0213V8.42773H40.7468V9.34311Z" fill="#2C2F32"/>
<path d="M49.9656 12.1755C49.9531 11.4132 49.6681 10.6813 49.1621 10.1132C48.665 9.56467 47.956 9.29219 47.0331 9.29219C46.6251 9.28863 46.2189 9.36877 45.843 9.52905C45.4849 9.68043 45.1571 9.89769 44.8792 10.1702C44.6048 10.4373 44.3803 10.749 44.2182 11.0945C44.0561 11.4346 43.9599 11.8032 43.9349 12.179L49.9656 12.1755ZM51.2679 12.5904V12.8736C51.2679 12.9804 51.2608 13.0873 51.2501 13.1941H43.9207C43.9313 13.6233 44.0204 14.0454 44.1861 14.4407C44.3429 14.8219 44.5745 15.1691 44.8667 15.4594C45.1606 15.7515 45.5063 15.9848 45.8858 16.1486C46.3668 16.3481 46.8888 16.4318 47.4072 16.3962C47.9275 16.3605 48.4316 16.2038 48.8806 15.942C49.3242 15.6731 49.7019 15.308 49.9852 14.8753L50.949 15.6304C50.4894 16.2412 49.8908 16.731 49.2013 17.064C48.5581 17.3561 47.858 17.5039 47.1525 17.5003C46.5271 17.5057 45.9089 17.3863 45.3299 17.1495C44.7865 16.9286 44.2948 16.5974 43.885 16.1771C43.477 15.7515 43.1564 15.2528 42.9372 14.7061C42.7003 14.1202 42.5809 13.4933 42.5862 12.8611C42.5791 12.2271 42.6949 11.5984 42.9265 11.009C43.1421 10.4605 43.4628 9.96002 43.8708 9.53617C44.2734 9.12123 44.7562 8.78998 45.2907 8.56381C45.8466 8.32873 46.4434 8.20941 47.0474 8.21475C47.6763 8.20229 48.2998 8.32161 48.8806 8.56381C49.3848 8.77929 49.8355 9.10164 50.2043 9.50768C50.5606 9.91194 50.8332 10.3857 51.006 10.8968C51.1895 11.4417 51.2786 12.0152 51.2733 12.5886L51.2679 12.5904Z" fill="#2C2F32"/>
<path d="M55.1776 8.43516C55.2025 8.67558 55.2221 8.93915 55.2346 9.22765C55.2471 9.51794 55.2524 9.75658 55.2524 9.94535H55.2916C55.5606 9.4093 55.99 8.9712 56.5191 8.68982C57.0643 8.37461 57.6825 8.20898 58.3132 8.20898C59.4338 8.20898 60.2747 8.54023 60.8359 9.20272C61.3953 9.86521 61.6768 10.7468 61.6768 11.8456V17.2648H60.3994V12.3798C60.403 11.956 60.3656 11.5321 60.2872 11.1136C60.2231 10.7681 60.0912 10.4369 59.9006 10.1412C59.7153 9.86877 59.4623 9.64972 59.1648 9.50903C58.7996 9.34519 58.4023 9.26861 58.0014 9.28286C57.6593 9.28286 57.3208 9.3541 57.0073 9.49122C56.6777 9.63548 56.3837 9.85097 56.1486 10.1234C55.8778 10.4387 55.6729 10.8055 55.5446 11.2009C55.3843 11.6977 55.3076 12.2178 55.3183 12.7396V17.2719H54.0338V10.3817C54.0338 10.143 54.0338 9.83316 54.016 9.45739C53.9982 9.07984 53.9839 8.73969 53.959 8.43694H55.1812L55.1776 8.43516Z" fill="#2C2F32"/>
<path d="M68.7434 9.5125H66.6661V17.2736H65.3887V9.5125H63.543V8.43506H65.3887V6.02373C65.3887 5.01575 65.6346 4.22325 66.1245 3.64447C66.6162 3.06568 67.3734 2.77539 68.396 2.77539C68.5724 2.77539 68.7488 2.7843 68.9252 2.80388C69.1033 2.82169 69.2815 2.85553 69.4525 2.90718L69.2262 4.0416C69.0837 4.00421 68.943 3.97393 68.8111 3.94722C68.6544 3.9205 68.4976 3.90804 68.339 3.90804C68.0486 3.89735 67.7618 3.95612 67.4981 4.079C67.2843 4.18586 67.1061 4.35326 66.9868 4.55984C66.8621 4.78602 66.7783 5.03178 66.7409 5.28823C66.6964 5.58207 66.6732 5.8777 66.675 6.17511V8.44575H68.7523L68.7416 9.51072L68.7434 9.5125Z" fill="#2C2F32"/>
<path d="M77.3165 12.1753C77.3058 11.4131 77.0207 10.6793 76.513 10.1077C76.0159 9.55915 75.3068 9.28668 74.384 9.28668C73.976 9.28312 73.5698 9.36325 73.1939 9.52353C72.8358 9.67491 72.508 9.89218 72.23 10.1647C71.9557 10.4318 71.7312 10.7434 71.5691 11.0889C71.4069 11.4291 71.3107 11.7977 71.2858 12.1735H77.3165V12.1753ZM78.6188 12.5902V12.8734C78.6188 12.9802 78.6117 13.0871 78.601 13.1939H71.2715C71.2822 13.6231 71.3713 14.0452 71.5352 14.4406C71.6938 14.8217 71.9254 15.1672 72.2158 15.4592C72.5097 15.7513 72.8554 15.9846 73.2349 16.1484C73.7159 16.3479 74.2379 16.4316 74.7563 16.396C75.2765 16.3604 75.7807 16.2037 76.2297 15.9419C76.6733 15.6729 77.051 15.3079 77.3343 14.8751L78.2981 15.6302C77.8385 16.2411 77.2399 16.7308 76.5504 17.0638C75.9072 17.3559 75.2071 17.5037 74.5016 17.5001C73.8762 17.5055 73.258 17.3862 72.679 17.1493C72.1356 16.9285 71.6421 16.5972 71.2323 16.1769C70.8226 15.7513 70.4983 15.2509 70.2792 14.7041C70.0422 14.1182 69.9247 13.4914 69.93 12.8591C69.9229 12.2251 70.0387 11.5965 70.2703 11.007C70.4859 10.4585 70.8065 9.95807 71.2145 9.53422C71.6189 9.11927 72.1 8.78803 72.6345 8.56185C73.1903 8.32678 73.7889 8.20746 74.3911 8.2128C75.02 8.20033 75.6436 8.31965 76.2244 8.56185C76.7285 8.77734 77.1793 9.09968 77.5481 9.50573C77.9044 9.90999 78.1788 10.3837 78.3498 10.8948C78.5351 11.4398 78.6259 12.0132 78.6206 12.5884L78.6188 12.5902Z" fill="#2C2F32"/>
<path d="M85.3661 9.51226H82.8736V14.6662C82.8665 14.9404 82.8986 15.2129 82.9681 15.4782C83.0162 15.6652 83.1106 15.838 83.2424 15.9787C83.36 16.098 83.5061 16.1817 83.6682 16.2244C83.841 16.269 84.0174 16.2921 84.1956 16.2903C84.3844 16.2886 84.5715 16.2636 84.7532 16.2155C84.9456 16.1657 85.1327 16.0962 85.3091 16.0072L85.3661 17.1202C85.1363 17.2093 84.8993 17.2769 84.657 17.3197C84.3916 17.366 84.1243 17.3874 83.8553 17.3856C83.6005 17.3838 83.3458 17.3517 83.0981 17.2912C82.8291 17.2271 82.5779 17.1042 82.3623 16.9315C82.1236 16.7391 81.933 16.4934 81.8065 16.2155C81.6479 15.8398 81.5731 15.4337 81.5891 15.0259V9.51226H79.7559V8.43482H81.5891V5.94336H82.8665V8.43482H85.359L85.3679 9.51226H85.3661Z" fill="#2C2F32"/>
<path d="M93.7338 10.4569C93.5004 10.1008 93.178 9.81047 92.7985 9.61636C92.3887 9.39553 91.9309 9.28333 91.4677 9.28511C90.9884 9.27799 90.5109 9.37238 90.0691 9.55937C89.6647 9.7339 89.3012 9.99213 89.0019 10.3162C88.7008 10.6457 88.4692 11.0304 88.3214 11.4507C88.161 11.903 88.0808 12.3785 88.0862 12.8576C88.0808 13.3331 88.161 13.8068 88.3214 14.2538C88.471 14.6687 88.6973 15.0499 88.9912 15.3775C89.2852 15.7034 89.6469 15.9599 90.0495 16.1344C90.4913 16.3214 90.967 16.4158 91.448 16.4087C91.9113 16.4283 92.3727 16.3339 92.7914 16.1326C93.21 15.9314 93.5717 15.6304 93.8461 15.2564L94.8099 15.9741C94.4304 16.4389 93.9565 16.8201 93.4203 17.0872C92.8038 17.3793 92.1286 17.5217 91.448 17.5021C90.7835 17.511 90.1225 17.3917 89.5026 17.1513C88.9467 16.934 88.4407 16.6028 88.0185 16.1789C87.6052 15.7569 87.2809 15.2564 87.0653 14.7061C86.611 13.5147 86.611 12.1969 87.0653 11.0037C87.2809 10.4534 87.6069 9.95295 88.0185 9.53087C88.4407 9.10702 88.9449 8.77578 89.5026 8.55851C90.1225 8.31809 90.7835 8.20055 91.448 8.20945C92.0698 8.21658 92.6827 8.34658 93.2528 8.59591C93.8407 8.83633 94.352 9.23169 94.7351 9.73924L93.7338 10.4534V10.4569Z" fill="#2C2F32"/>
<path d="M98.1731 9.88912C98.4243 9.36019 98.8412 8.92922 99.3632 8.66208C99.9066 8.36289 100.518 8.20617 101.139 8.20974C102.26 8.20974 103.101 8.54098 103.662 9.20347C104.222 9.86596 104.503 10.7475 104.503 11.8463V17.2656H103.226V12.3806C103.229 11.9567 103.192 11.5329 103.112 11.1144C103.049 10.7671 102.917 10.4376 102.725 10.142C102.542 9.86953 102.287 9.65048 101.989 9.50979C101.624 9.34594 101.227 9.26937 100.828 9.28361C100.478 9.28361 100.133 9.36019 99.8139 9.50444C99.495 9.6487 99.2118 9.86062 98.9819 10.1242C98.7129 10.4394 98.508 10.8063 98.378 11.2016C98.2176 11.6985 98.141 12.2185 98.1517 12.7403V17.2727H96.8672V2.99707H98.1517V9.88912H98.1767H98.1731Z" fill="#2C2F32"/>
<path d="M10.4294 12.7773L0 6.84342L10.4294 0.448242L21.4147 6.84342L10.4294 12.7773Z" fill="#12DD99"/>
<path d="M12.8701 26.1144L0.871094 19.2865L10.4293 0.448242L22.113 7.21206L12.8701 26.1144Z" fill="url(#paint0_linear_671_1140)"/>
<path d="M12.8701 26.1145L0.871094 19.2865L12.8701 11.9297L25.5087 19.2865L12.8701 26.1145Z" fill="#12DD99"/>
<defs>
<linearGradient id="paint0_linear_671_1140" x1="19.1841" y1="0.378788" x2="-3.74404" y2="39.6677" gradientUnits="userSpaceOnUse">
<stop offset="0.1" stop-color="#827DFC"/>
<stop offset="0.2" stop-color="#728AF4"/>
<stop offset="0.55" stop-color="#41B7DD"/>
<stop offset="0.81" stop-color="#22D2CF"/>
<stop offset="0.96" stop-color="#17DDCA"/>
</linearGradient>
</defs>
</svg>
