<svg width="484" height="458" viewBox="0 0 484 458" fill="none" xmlns="http://www.w3.org/2000/svg">
<rect width="484" height="458" rx="10" fill="#F5F7F9"/>
<rect x="0.25" y="0.25" width="483.5" height="457.5" rx="9.75" stroke="black" stroke-opacity="0.4" stroke-width="0.5"/>
<path d="M61.28 176.64C60.336 176.64 59.52 176.48 58.832 176.16C58.16 175.856 57.648 175.4 57.296 174.792C56.944 174.2 56.792 173.488 56.84 172.656L57.08 168.72C57.128 167.872 57 167.264 56.696 166.896C56.392 166.512 55.72 166.32 54.68 166.32H52.04V164.4H54.68C55.72 164.4 56.392 164.216 56.696 163.848C57 163.464 57.128 162.848 57.08 162L56.84 158.064C56.792 157.216 56.944 156.496 57.296 155.904C57.648 155.312 58.16 154.864 58.832 154.56C59.52 154.24 60.336 154.08 61.28 154.08H62.36V156H61.28C60.528 156 59.952 156.176 59.552 156.528C59.152 156.864 58.968 157.376 59 158.064L59.24 162C59.304 163.04 59.056 163.872 58.496 164.496C57.936 165.104 57.144 165.408 56.12 165.408V165.288C57.128 165.288 57.912 165.6 58.472 166.224C59.048 166.848 59.304 167.68 59.24 168.72L59 172.656C58.968 173.344 59.152 173.856 59.552 174.192C59.952 174.544 60.528 174.72 61.28 174.72H62.36V176.64H61.28ZM172.325 196.16C171.733 196.16 171.253 196 170.885 195.68C170.517 195.344 170.333 194.904 170.333 194.36C170.333 193.816 170.517 193.384 170.885 193.064C171.253 192.728 171.733 192.56 172.325 192.56C172.933 192.56 173.413 192.728 173.765 193.064C174.133 193.384 174.317 193.816 174.317 194.36C174.317 194.904 174.133 195.344 173.765 195.68C173.413 196 172.933 196.16 172.325 196.16ZM172.325 206.24C171.733 206.24 171.253 206.08 170.885 205.76C170.517 205.424 170.333 204.984 170.333 204.44C170.333 203.896 170.517 203.464 170.885 203.144C171.253 202.808 171.733 202.64 172.325 202.64C172.933 202.64 173.413 202.808 173.765 203.144C174.133 203.464 174.317 203.896 174.317 204.44C174.317 204.984 174.133 205.424 173.765 205.76C173.413 206.08 172.933 206.24 172.325 206.24ZM370.554 209.84L372.474 202.376H375.594L372.474 209.84H370.554ZM215.497 228.16C214.905 228.16 214.425 228 214.057 227.68C213.689 227.344 213.505 226.904 213.505 226.36C213.505 225.816 213.689 225.384 214.057 225.064C214.425 224.728 214.905 224.56 215.497 224.56C216.105 224.56 216.585 224.728 216.937 225.064C217.305 225.384 217.489 225.816 217.489 226.36C217.489 226.904 217.305 227.344 216.937 227.68C216.585 228 216.105 228.16 215.497 228.16ZM215.497 238.24C214.905 238.24 214.425 238.08 214.057 237.76C213.689 237.424 213.505 236.984 213.505 236.44C213.505 235.896 213.689 235.464 214.057 235.144C214.425 234.808 214.905 234.64 215.497 234.64C216.105 234.64 216.585 234.808 216.937 235.144C217.305 235.464 217.489 235.896 217.489 236.44C217.489 236.984 217.305 237.424 216.937 237.76C216.585 238.08 216.105 238.24 215.497 238.24ZM327.382 241.84L329.302 234.376H332.422L329.302 241.84H327.382ZM388.184 260.16C387.592 260.16 387.112 260 386.744 259.68C386.376 259.344 386.192 258.904 386.192 258.36C386.192 257.816 386.376 257.384 386.744 257.064C387.112 256.728 387.592 256.56 388.184 256.56C388.792 256.56 389.272 256.728 389.624 257.064C389.992 257.384 390.176 257.816 390.176 258.36C390.176 258.904 389.992 259.344 389.624 259.68C389.272 260 388.792 260.16 388.184 260.16ZM388.184 270.24C387.592 270.24 387.112 270.08 386.744 269.76C386.376 269.424 386.192 268.984 386.192 268.44C386.192 267.896 386.376 267.464 386.744 267.144C387.112 266.808 387.592 266.64 388.184 266.64C388.792 266.64 389.272 266.808 389.624 267.144C389.992 267.464 390.176 267.896 390.176 268.44C390.176 268.984 389.992 269.424 389.624 269.76C389.272 270.08 388.792 270.24 388.184 270.24ZM52.04 304.64V302.72H53.12C53.872 302.72 54.448 302.544 54.848 302.192C55.248 301.856 55.432 301.344 55.4 300.656L55.16 296.72C55.096 295.68 55.344 294.848 55.904 294.224C56.48 293.6 57.272 293.288 58.28 293.288V293.408C57.256 293.408 56.464 293.104 55.904 292.496C55.344 291.872 55.096 291.04 55.16 290L55.4 286.064C55.432 285.376 55.248 284.864 54.848 284.528C54.448 284.176 53.872 284 53.12 284H52.04V282.08H53.12C54.064 282.08 54.872 282.24 55.544 282.56C56.232 282.864 56.752 283.312 57.104 283.904C57.456 284.496 57.608 285.216 57.56 286.064L57.32 290C57.272 290.848 57.4 291.464 57.704 291.848C58.008 292.216 58.68 292.4 59.72 292.4H62.36V294.32H59.72C58.696 294.32 58.024 294.512 57.704 294.896C57.4 295.264 57.272 295.872 57.32 296.72L57.56 300.656C57.608 301.488 57.456 302.2 57.104 302.792C56.752 303.4 56.232 303.856 55.544 304.16C54.872 304.48 54.064 304.64 53.12 304.64H52.04Z" fill="#5D5D5D"/>
<path d="M87.5413 195.68L87.2533 190.64V188.48H89.5813V190.64L89.3173 195.68H87.5413ZM82.6693 195.68L82.3813 190.64V188.48H84.7093V190.64L84.4453 195.68H82.6693ZM95.3799 206V192.8H97.5399V195.32H97.9959L97.5399 195.824C97.5399 194.784 97.8519 193.984 98.4759 193.424C99.0999 192.848 99.9639 192.56 101.068 192.56C102.396 192.56 103.452 192.968 104.236 193.784C105.02 194.6 105.412 195.712 105.412 197.12V206H103.252V197.36C103.252 196.416 102.996 195.696 102.484 195.2C101.988 194.688 101.308 194.432 100.444 194.432C99.5479 194.432 98.8359 194.704 98.3079 195.248C97.7959 195.792 97.5399 196.576 97.5399 197.6V206H95.3799ZM113.611 206.24C112.219 206.24 111.123 205.888 110.323 205.184C109.523 204.464 109.123 203.496 109.123 202.28C109.123 201.048 109.523 200.08 110.323 199.376C111.123 198.672 112.203 198.32 113.562 198.32H117.643V197C117.643 196.184 117.395 195.56 116.899 195.128C116.419 194.68 115.731 194.456 114.835 194.456C114.051 194.456 113.395 194.624 112.867 194.96C112.339 195.28 112.035 195.72 111.955 196.28H109.795C109.939 195.144 110.475 194.24 111.403 193.568C112.331 192.896 113.491 192.56 114.883 192.56C116.403 192.56 117.603 192.952 118.483 193.736C119.363 194.52 119.803 195.584 119.803 196.928V206H117.691V203.48H117.331L117.691 203.12C117.691 204.08 117.315 204.84 116.563 205.4C115.827 205.96 114.843 206.24 113.611 206.24ZM114.139 204.536C115.163 204.536 116.003 204.28 116.659 203.768C117.315 203.256 117.643 202.6 117.643 201.8V199.928H113.611C112.891 199.928 112.323 200.128 111.907 200.528C111.491 200.928 111.283 201.472 111.283 202.16C111.283 202.896 111.531 203.48 112.027 203.912C112.539 204.328 113.243 204.536 114.139 204.536ZM123.537 206V192.8H125.433V194.384H125.865L125.529 194.96C125.529 194.224 125.721 193.64 126.105 193.208C126.505 192.776 127.041 192.56 127.713 192.56C128.449 192.56 129.017 192.832 129.417 193.376C129.817 193.92 130.017 194.688 130.017 195.68L129.369 194.384H130.377L129.921 194.96C129.921 194.224 130.121 193.64 130.521 193.208C130.937 192.776 131.481 192.56 132.153 192.56C132.985 192.56 133.625 192.872 134.073 193.496C134.537 194.12 134.769 194.944 134.769 195.968V206H132.777V195.944C132.777 195.4 132.657 194.976 132.417 194.672C132.193 194.368 131.857 194.216 131.409 194.216C130.977 194.216 130.633 194.368 130.377 194.672C130.137 194.96 130.017 195.376 130.017 195.92V206H128.289V195.944C128.289 195.384 128.161 194.96 127.905 194.672C127.665 194.368 127.321 194.216 126.873 194.216C126.425 194.216 126.089 194.368 125.865 194.672C125.641 194.96 125.529 195.376 125.529 195.92V206H123.537ZM143.544 206.24C142.504 206.24 141.592 206.032 140.808 205.616C140.04 205.2 139.44 204.616 139.008 203.864C138.592 203.096 138.384 202.208 138.384 201.2V197.6C138.384 196.576 138.592 195.688 139.008 194.936C139.44 194.184 140.04 193.6 140.808 193.184C141.592 192.768 142.504 192.56 143.544 192.56C144.584 192.56 145.488 192.768 146.256 193.184C147.04 193.6 147.64 194.184 148.056 194.936C148.488 195.688 148.704 196.576 148.704 197.6V199.928H140.496V201.2C140.496 202.24 140.76 203.04 141.288 203.6C141.816 204.144 142.568 204.416 143.544 204.416C144.376 204.416 145.048 204.272 145.56 203.984C146.072 203.68 146.384 203.232 146.496 202.64H148.656C148.512 203.744 147.968 204.624 147.024 205.28C146.096 205.92 144.936 206.24 143.544 206.24ZM146.592 198.488V197.6C146.592 196.56 146.328 195.76 145.8 195.2C145.288 194.64 144.536 194.36 143.544 194.36C142.568 194.36 141.816 194.64 141.288 195.2C140.76 195.76 140.496 196.56 140.496 197.6V198.296H146.76L146.592 198.488ZM159.494 195.68L159.206 190.64V188.48H161.534V190.64L161.27 195.68H159.494ZM154.622 195.68L154.334 190.64V188.48H156.662V190.64L156.398 195.68H154.622ZM87.5413 227.68L87.2533 222.64V220.48H89.5813V222.64L89.3173 227.68H87.5413ZM82.6693 227.68L82.3813 222.64V220.48H84.7093V222.64L84.4453 227.68H82.6693ZM95.3799 242.32V224.8H97.5399V227.32H97.9719L97.5399 227.824C97.5399 226.816 97.8679 226.024 98.5239 225.448C99.1959 224.856 100.076 224.56 101.164 224.56C102.492 224.56 103.548 225 104.332 225.88C105.132 226.744 105.532 227.936 105.532 229.456V233.32C105.532 234.328 105.348 235.2 104.98 235.936C104.628 236.672 104.124 237.24 103.468 237.64C102.828 238.04 102.06 238.24 101.164 238.24C100.092 238.24 99.2199 237.944 98.5479 237.352C97.8759 236.76 97.5399 235.968 97.5399 234.976L97.9719 235.48H97.4919L97.5399 238.48V242.32H95.3799ZM100.444 236.368C101.356 236.368 102.068 236.096 102.58 235.552C103.108 235.008 103.372 234.224 103.372 233.2V229.6C103.372 228.576 103.108 227.792 102.58 227.248C102.068 226.704 101.356 226.432 100.444 226.432C99.5639 226.432 98.8599 226.712 98.3319 227.272C97.8039 227.832 97.5399 228.608 97.5399 229.6V233.2C97.5399 234.192 97.8039 234.968 98.3319 235.528C98.8599 236.088 99.5639 236.368 100.444 236.368ZM110.227 238V224.8H112.339V227.32H112.843L112.147 228.88C112.147 227.456 112.451 226.384 113.059 225.664C113.683 224.928 114.603 224.56 115.819 224.56C117.211 224.56 118.315 225 119.131 225.88C119.963 226.744 120.379 227.92 120.379 229.408V230.2H118.219V229.6C118.219 228.56 117.963 227.768 117.451 227.224C116.955 226.664 116.243 226.384 115.315 226.384C114.403 226.384 113.683 226.664 113.155 227.224C112.643 227.784 112.387 228.576 112.387 229.6V238H110.227ZM129.153 238.192C128.097 238.192 127.185 237.992 126.417 237.592C125.649 237.192 125.049 236.616 124.617 235.864C124.201 235.096 123.993 234.192 123.993 233.152V229.648C123.993 228.592 124.201 227.688 124.617 226.936C125.049 226.184 125.649 225.608 126.417 225.208C127.185 224.808 128.097 224.608 129.153 224.608C130.209 224.608 131.121 224.808 131.889 225.208C132.657 225.608 133.249 226.184 133.665 226.936C134.097 227.688 134.313 228.584 134.313 229.624V233.152C134.313 234.192 134.097 235.096 133.665 235.864C133.249 236.616 132.657 237.192 131.889 237.592C131.121 237.992 130.209 238.192 129.153 238.192ZM129.153 236.272C130.097 236.272 130.833 236.008 131.361 235.48C131.889 234.952 132.153 234.176 132.153 233.152V229.648C132.153 228.624 131.889 227.848 131.361 227.32C130.833 226.792 130.097 226.528 129.153 226.528C128.225 226.528 127.489 226.792 126.945 227.32C126.417 227.848 126.153 228.624 126.153 229.648V233.152C126.153 234.176 126.417 234.952 126.945 235.48C127.489 236.008 128.225 236.272 129.153 236.272ZM142.776 238.24C141.464 238.24 140.4 237.8 139.584 236.92C138.784 236.04 138.384 234.848 138.384 233.344V229.48C138.384 227.96 138.784 226.76 139.584 225.88C140.384 225 141.448 224.56 142.776 224.56C143.864 224.56 144.736 224.856 145.392 225.448C146.048 226.04 146.376 226.832 146.376 227.824L145.944 227.32H146.424L146.376 224.32V220.48H148.536V238H146.376V235.48H145.944L146.376 234.976C146.376 235.984 146.048 236.784 145.392 237.376C144.736 237.952 143.864 238.24 142.776 238.24ZM143.496 236.368C144.392 236.368 145.096 236.088 145.608 235.528C146.12 234.968 146.376 234.192 146.376 233.2V229.6C146.376 228.608 146.12 227.832 145.608 227.272C145.096 226.712 144.392 226.432 143.496 226.432C142.584 226.432 141.864 226.704 141.336 227.248C140.808 227.792 140.544 228.576 140.544 229.6V233.2C140.544 234.224 140.808 235.008 141.336 235.552C141.864 236.096 142.584 236.368 143.496 236.368ZM157.91 238.24C156.39 238.24 155.174 237.792 154.262 236.896C153.35 235.984 152.894 234.752 152.894 233.2V224.8H155.054V233.2C155.054 234.192 155.31 234.968 155.822 235.528C156.334 236.072 157.03 236.344 157.91 236.344C158.806 236.344 159.51 236.072 160.022 235.528C160.55 234.968 160.814 234.192 160.814 233.2V224.8H162.974V233.2C162.974 234.752 162.51 235.984 161.582 236.896C160.654 237.792 159.43 238.24 157.91 238.24ZM172.421 238.24C171.365 238.24 170.437 238.04 169.637 237.64C168.853 237.24 168.245 236.664 167.813 235.912C167.381 235.144 167.165 234.24 167.165 233.2V229.6C167.165 228.544 167.381 227.64 167.813 226.888C168.245 226.136 168.853 225.56 169.637 225.16C170.437 224.76 171.365 224.56 172.421 224.56C173.941 224.56 175.165 224.968 176.093 225.784C177.021 226.6 177.509 227.712 177.557 229.12H175.397C175.349 228.272 175.061 227.624 174.533 227.176C174.021 226.712 173.317 226.48 172.421 226.48C171.477 226.48 170.725 226.752 170.165 227.296C169.605 227.824 169.325 228.584 169.325 229.576V233.2C169.325 234.192 169.605 234.96 170.165 235.504C170.725 236.048 171.477 236.32 172.421 236.32C173.317 236.32 174.021 236.088 174.533 235.624C175.061 235.16 175.349 234.512 175.397 233.68H177.557C177.509 235.088 177.021 236.2 176.093 237.016C175.165 237.832 173.941 238.24 172.421 238.24ZM188.156 238C187.02 238 186.132 237.696 185.492 237.088C184.868 236.48 184.556 235.624 184.556 234.52V226.768H180.836V224.8H184.556V221.08H186.716V224.8H191.996V226.768H186.716V234.52C186.716 235.528 187.196 236.032 188.156 236.032H191.756V238H188.156ZM202.666 227.68L202.378 222.64V220.48H204.706V222.64L204.442 227.68H202.666ZM197.794 227.68L197.506 222.64V220.48H199.834V222.64L199.57 227.68H197.794ZM87.5413 259.68L87.2533 254.64V252.48H89.5813V254.64L89.3173 259.68H87.5413ZM82.6693 259.68L82.3813 254.64V252.48H84.7093V254.64L84.4453 259.68H82.6693ZM102.172 270C101.404 270 100.732 269.848 100.156 269.544C99.5799 269.24 99.1319 268.808 98.8119 268.248C98.4919 267.688 98.3319 267.032 98.3319 266.28V254.448H93.8919V252.48H100.492V266.28C100.492 266.824 100.644 267.256 100.948 267.576C101.252 267.88 101.66 268.032 102.172 268.032H106.372V270H102.172ZM113.611 270.24C112.219 270.24 111.123 269.888 110.323 269.184C109.523 268.464 109.123 267.496 109.123 266.28C109.123 265.048 109.523 264.08 110.323 263.376C111.123 262.672 112.203 262.32 113.562 262.32H117.643V261C117.643 260.184 117.395 259.56 116.899 259.128C116.419 258.68 115.731 258.456 114.835 258.456C114.051 258.456 113.395 258.624 112.867 258.96C112.339 259.28 112.035 259.72 111.955 260.28H109.795C109.939 259.144 110.475 258.24 111.403 257.568C112.331 256.896 113.491 256.56 114.883 256.56C116.403 256.56 117.603 256.952 118.483 257.736C119.363 258.52 119.803 259.584 119.803 260.928V270H117.691V267.48H117.331L117.691 267.12C117.691 268.08 117.315 268.84 116.563 269.4C115.827 269.96 114.843 270.24 113.611 270.24ZM114.139 268.536C115.163 268.536 116.003 268.28 116.659 267.768C117.315 267.256 117.643 266.6 117.643 265.8V263.928H113.611C112.891 263.928 112.323 264.128 111.907 264.528C111.491 264.928 111.283 265.472 111.283 266.16C111.283 266.896 111.531 267.48 112.027 267.912C112.539 268.328 113.243 268.536 114.139 268.536ZM124.161 270V256.8H126.321V259.32H126.777L126.321 259.824C126.321 258.784 126.633 257.984 127.257 257.424C127.881 256.848 128.745 256.56 129.849 256.56C131.177 256.56 132.233 256.968 133.017 257.784C133.801 258.6 134.193 259.712 134.193 261.12V270H132.033V261.36C132.033 260.416 131.777 259.696 131.265 259.2C130.769 258.688 130.089 258.432 129.225 258.432C128.329 258.432 127.617 258.704 127.089 259.248C126.577 259.792 126.321 260.576 126.321 261.6V270H124.161ZM140.208 274.32V272.352H144.408C145.08 272.352 145.568 272.2 145.872 271.896C146.192 271.592 146.352 271.12 146.352 270.48V268.8L146.4 266.4H145.968L146.376 266.04C146.376 267 146.056 267.76 145.416 268.32C144.776 268.88 143.92 269.16 142.848 269.16C141.488 269.16 140.416 268.72 139.632 267.84C138.848 266.944 138.456 265.744 138.456 264.24V261.456C138.456 259.952 138.848 258.76 139.632 257.88C140.416 257 141.488 256.56 142.848 256.56C143.92 256.56 144.776 256.84 145.416 257.4C146.056 257.96 146.376 258.72 146.376 259.68L145.968 259.32H146.376V256.8H148.512V270.48C148.512 271.664 148.144 272.6 147.408 273.288C146.688 273.976 145.68 274.32 144.384 274.32H140.208ZM143.496 267.288C144.392 267.288 145.096 267.008 145.608 266.448C146.12 265.888 146.376 265.112 146.376 264.12V261.6C146.376 260.608 146.12 259.832 145.608 259.272C145.096 258.712 144.392 258.432 143.496 258.432C142.584 258.432 141.872 258.704 141.36 259.248C140.864 259.792 140.616 260.576 140.616 261.6V264.12C140.616 265.144 140.864 265.928 141.36 266.472C141.872 267.016 142.584 267.288 143.496 267.288ZM157.91 270.24C156.39 270.24 155.174 269.792 154.262 268.896C153.35 267.984 152.894 266.752 152.894 265.2V256.8H155.054V265.2C155.054 266.192 155.31 266.968 155.822 267.528C156.334 268.072 157.03 268.344 157.91 268.344C158.806 268.344 159.51 268.072 160.022 267.528C160.55 266.968 160.814 266.192 160.814 265.2V256.8H162.974V265.2C162.974 266.752 162.51 267.984 161.582 268.896C160.654 269.792 159.43 270.24 157.91 270.24ZM171.173 270.24C169.781 270.24 168.685 269.888 167.885 269.184C167.085 268.464 166.685 267.496 166.685 266.28C166.685 265.048 167.085 264.08 167.885 263.376C168.685 262.672 169.765 262.32 171.125 262.32H175.205V261C175.205 260.184 174.957 259.56 174.461 259.128C173.981 258.68 173.293 258.456 172.397 258.456C171.613 258.456 170.957 258.624 170.429 258.96C169.901 259.28 169.597 259.72 169.517 260.28H167.357C167.501 259.144 168.037 258.24 168.965 257.568C169.893 256.896 171.053 256.56 172.445 256.56C173.965 256.56 175.165 256.952 176.045 257.736C176.925 258.52 177.365 259.584 177.365 260.928V270H175.253V267.48H174.893L175.253 267.12C175.253 268.08 174.877 268.84 174.125 269.4C173.389 269.96 172.405 270.24 171.173 270.24ZM171.701 268.536C172.725 268.536 173.565 268.28 174.221 267.768C174.877 267.256 175.205 266.6 175.205 265.8V263.928H171.173C170.453 263.928 169.885 264.128 169.469 264.528C169.053 264.928 168.845 265.472 168.845 266.16C168.845 266.896 169.093 267.48 169.589 267.912C170.101 268.328 170.805 268.536 171.701 268.536ZM183.38 274.32V272.352H187.58C188.252 272.352 188.74 272.2 189.044 271.896C189.364 271.592 189.524 271.12 189.524 270.48V268.8L189.572 266.4H189.14L189.548 266.04C189.548 267 189.228 267.76 188.588 268.32C187.948 268.88 187.092 269.16 186.02 269.16C184.66 269.16 183.588 268.72 182.804 267.84C182.02 266.944 181.628 265.744 181.628 264.24V261.456C181.628 259.952 182.02 258.76 182.804 257.88C183.588 257 184.66 256.56 186.02 256.56C187.092 256.56 187.948 256.84 188.588 257.4C189.228 257.96 189.548 258.72 189.548 259.68L189.14 259.32H189.548V256.8H191.684V270.48C191.684 271.664 191.316 272.6 190.58 273.288C189.86 273.976 188.852 274.32 187.556 274.32H183.38ZM186.668 267.288C187.564 267.288 188.268 267.008 188.78 266.448C189.292 265.888 189.548 265.112 189.548 264.12V261.6C189.548 260.608 189.292 259.832 188.78 259.272C188.268 258.712 187.564 258.432 186.668 258.432C185.756 258.432 185.044 258.704 184.532 259.248C184.036 259.792 183.788 260.576 183.788 261.6V264.12C183.788 265.144 184.036 265.928 184.532 266.472C185.044 267.016 185.756 267.288 186.668 267.288ZM201.106 270.24C200.066 270.24 199.154 270.032 198.37 269.616C197.602 269.2 197.002 268.616 196.57 267.864C196.154 267.096 195.946 266.208 195.946 265.2V261.6C195.946 260.576 196.154 259.688 196.57 258.936C197.002 258.184 197.602 257.6 198.37 257.184C199.154 256.768 200.066 256.56 201.106 256.56C202.146 256.56 203.05 256.768 203.818 257.184C204.602 257.6 205.202 258.184 205.618 258.936C206.05 259.688 206.266 260.576 206.266 261.6V263.928H198.058V265.2C198.058 266.24 198.322 267.04 198.85 267.6C199.378 268.144 200.13 268.416 201.106 268.416C201.938 268.416 202.61 268.272 203.122 267.984C203.634 267.68 203.946 267.232 204.058 266.64H206.218C206.074 267.744 205.53 268.624 204.586 269.28C203.658 269.92 202.498 270.24 201.106 270.24ZM204.154 262.488V261.6C204.154 260.56 203.89 259.76 203.362 259.2C202.85 258.64 202.098 258.36 201.106 258.36C200.13 258.36 199.378 258.64 198.85 259.2C198.322 259.76 198.058 260.56 198.058 261.6V262.296H204.322L204.154 262.488ZM215.089 270.192C214.193 270.192 213.409 270.056 212.737 269.784C212.081 269.496 211.553 269.096 211.153 268.584C210.769 268.072 210.537 267.464 210.457 266.76H212.617C212.713 267.224 212.969 267.592 213.385 267.864C213.817 268.136 214.385 268.272 215.089 268.272H216.097C216.945 268.272 217.577 268.104 217.993 267.768C218.409 267.416 218.617 266.952 218.617 266.376C218.617 265.816 218.425 265.376 218.041 265.056C217.673 264.72 217.121 264.496 216.385 264.384L214.609 264.096C213.313 263.872 212.345 263.472 211.705 262.896C211.081 262.304 210.769 261.448 210.769 260.328C210.769 259.144 211.145 258.232 211.897 257.592C212.649 256.936 213.777 256.608 215.281 256.608H216.193C217.457 256.608 218.473 256.904 219.241 257.496C220.009 258.088 220.473 258.888 220.633 259.896H218.473C218.377 259.48 218.137 259.152 217.753 258.912C217.369 258.656 216.849 258.528 216.193 258.528H215.281C214.465 258.528 213.865 258.68 213.481 258.984C213.113 259.288 212.929 259.744 212.929 260.352C212.929 260.896 213.089 261.296 213.409 261.552C213.729 261.808 214.233 261.992 214.921 262.104L216.697 262.392C218.121 262.616 219.153 263.032 219.793 263.64C220.449 264.248 220.777 265.128 220.777 266.28C220.777 267.496 220.385 268.456 219.601 269.16C218.833 269.848 217.665 270.192 216.097 270.192H215.089ZM224.128 272.4V270.6H235.648V272.4H224.128ZM243.87 270.192C242.974 270.192 242.19 270.056 241.518 269.784C240.862 269.496 240.334 269.096 239.934 268.584C239.55 268.072 239.318 267.464 239.238 266.76H241.398C241.494 267.224 241.75 267.592 242.166 267.864C242.598 268.136 243.166 268.272 243.87 268.272H244.878C245.726 268.272 246.358 268.104 246.774 267.768C247.19 267.416 247.398 266.952 247.398 266.376C247.398 265.816 247.206 265.376 246.822 265.056C246.454 264.72 245.902 264.496 245.166 264.384L243.39 264.096C242.094 263.872 241.126 263.472 240.486 262.896C239.862 262.304 239.55 261.448 239.55 260.328C239.55 259.144 239.926 258.232 240.678 257.592C241.43 256.936 242.558 256.608 244.062 256.608H244.974C246.238 256.608 247.254 256.904 248.022 257.496C248.79 258.088 249.254 258.888 249.414 259.896H247.254C247.158 259.48 246.918 259.152 246.534 258.912C246.15 258.656 245.63 258.528 244.974 258.528H244.062C243.246 258.528 242.646 258.68 242.262 258.984C241.894 259.288 241.71 259.744 241.71 260.352C241.71 260.896 241.87 261.296 242.19 261.552C242.51 261.808 243.014 261.992 243.702 262.104L245.478 262.392C246.902 262.616 247.934 263.032 248.574 263.64C249.23 264.248 249.558 265.128 249.558 266.28C249.558 267.496 249.166 268.456 248.382 269.16C247.614 269.848 246.446 270.192 244.878 270.192H243.87ZM258.645 270.24C257.125 270.24 255.909 269.792 254.997 268.896C254.085 267.984 253.629 266.752 253.629 265.2V256.8H255.789V265.2C255.789 266.192 256.045 266.968 256.557 267.528C257.069 268.072 257.765 268.344 258.645 268.344C259.541 268.344 260.245 268.072 260.757 267.528C261.285 266.968 261.549 266.192 261.549 265.2V256.8H263.709V265.2C263.709 266.752 263.245 267.984 262.317 268.896C261.389 269.792 260.165 270.24 258.645 270.24ZM268.067 274.32V256.8H270.227V259.32H270.659L270.227 259.824C270.227 258.816 270.555 258.024 271.211 257.448C271.883 256.856 272.763 256.56 273.851 256.56C275.179 256.56 276.235 257 277.019 257.88C277.819 258.744 278.219 259.936 278.219 261.456V265.32C278.219 266.328 278.035 267.2 277.667 267.936C277.315 268.672 276.811 269.24 276.155 269.64C275.515 270.04 274.747 270.24 273.851 270.24C272.779 270.24 271.907 269.944 271.235 269.352C270.563 268.76 270.227 267.968 270.227 266.976L270.659 267.48H270.179L270.227 270.48V274.32H268.067ZM273.131 268.368C274.043 268.368 274.755 268.096 275.267 267.552C275.795 267.008 276.059 266.224 276.059 265.2V261.6C276.059 260.576 275.795 259.792 275.267 259.248C274.755 258.704 274.043 258.432 273.131 258.432C272.251 258.432 271.547 258.712 271.019 259.272C270.491 259.832 270.227 260.608 270.227 261.6V265.2C270.227 266.192 270.491 266.968 271.019 267.528C271.547 268.088 272.251 268.368 273.131 268.368ZM282.458 274.32V256.8H284.618V259.32H285.05L284.618 259.824C284.618 258.816 284.946 258.024 285.602 257.448C286.274 256.856 287.154 256.56 288.242 256.56C289.57 256.56 290.626 257 291.41 257.88C292.21 258.744 292.61 259.936 292.61 261.456V265.32C292.61 266.328 292.426 267.2 292.058 267.936C291.706 268.672 291.202 269.24 290.546 269.64C289.906 270.04 289.138 270.24 288.242 270.24C287.17 270.24 286.298 269.944 285.626 269.352C284.954 268.76 284.618 267.968 284.618 266.976L285.05 267.48H284.57L284.618 270.48V274.32H282.458ZM287.522 268.368C288.434 268.368 289.146 268.096 289.658 267.552C290.186 267.008 290.45 266.224 290.45 265.2V261.6C290.45 260.576 290.186 259.792 289.658 259.248C289.146 258.704 288.434 258.432 287.522 258.432C286.642 258.432 285.938 258.712 285.41 259.272C284.882 259.832 284.618 260.608 284.618 261.6V265.2C284.618 266.192 284.882 266.968 285.41 267.528C285.938 268.088 286.642 268.368 287.522 268.368ZM301.841 270.192C300.785 270.192 299.873 269.992 299.105 269.592C298.337 269.192 297.737 268.616 297.305 267.864C296.889 267.096 296.681 266.192 296.681 265.152V261.648C296.681 260.592 296.889 259.688 297.305 258.936C297.737 258.184 298.337 257.608 299.105 257.208C299.873 256.808 300.785 256.608 301.841 256.608C302.897 256.608 303.809 256.808 304.577 257.208C305.345 257.608 305.937 258.184 306.353 258.936C306.785 259.688 307.001 260.584 307.001 261.624V265.152C307.001 266.192 306.785 267.096 306.353 267.864C305.937 268.616 305.345 269.192 304.577 269.592C303.809 269.992 302.897 270.192 301.841 270.192ZM301.841 268.272C302.785 268.272 303.521 268.008 304.049 267.48C304.577 266.952 304.841 266.176 304.841 265.152V261.648C304.841 260.624 304.577 259.848 304.049 259.32C303.521 258.792 302.785 258.528 301.841 258.528C300.913 258.528 300.177 258.792 299.633 259.32C299.105 259.848 298.841 260.624 298.841 261.648V265.152C298.841 266.176 299.105 266.952 299.633 267.48C300.177 268.008 300.913 268.272 301.841 268.272ZM311.695 270V256.8H313.807V259.32H314.311L313.615 260.88C313.615 259.456 313.919 258.384 314.527 257.664C315.151 256.928 316.071 256.56 317.287 256.56C318.679 256.56 319.783 257 320.599 257.88C321.431 258.744 321.847 259.92 321.847 261.408V262.2H319.687V261.6C319.687 260.56 319.431 259.768 318.919 259.224C318.423 258.664 317.711 258.384 316.783 258.384C315.871 258.384 315.151 258.664 314.623 259.224C314.111 259.784 313.855 260.576 313.855 261.6V270H311.695ZM332.062 270C330.926 270 330.038 269.696 329.398 269.088C328.774 268.48 328.462 267.624 328.462 266.52V258.768H324.742V256.8H328.462V253.08H330.622V256.8H335.902V258.768H330.622V266.52C330.622 267.528 331.102 268.032 332.062 268.032H335.662V270H332.062ZM345.013 270.24C343.973 270.24 343.061 270.032 342.277 269.616C341.509 269.2 340.909 268.616 340.477 267.864C340.061 267.096 339.853 266.208 339.853 265.2V261.6C339.853 260.576 340.061 259.688 340.477 258.936C340.909 258.184 341.509 257.6 342.277 257.184C343.061 256.768 343.973 256.56 345.013 256.56C346.053 256.56 346.957 256.768 347.725 257.184C348.509 257.6 349.109 258.184 349.525 258.936C349.957 259.688 350.173 260.576 350.173 261.6V263.928H341.965V265.2C341.965 266.24 342.229 267.04 342.757 267.6C343.285 268.144 344.037 268.416 345.013 268.416C345.845 268.416 346.517 268.272 347.029 267.984C347.541 267.68 347.853 267.232 347.965 266.64H350.125C349.981 267.744 349.437 268.624 348.493 269.28C347.565 269.92 346.405 270.24 345.013 270.24ZM348.061 262.488V261.6C348.061 260.56 347.797 259.76 347.269 259.2C346.757 258.64 346.005 258.36 345.013 258.36C344.037 258.36 343.285 258.64 342.757 259.2C342.229 259.76 341.965 260.56 341.965 261.6V262.296H348.229L348.061 262.488ZM358.635 270.24C357.323 270.24 356.259 269.8 355.443 268.92C354.643 268.04 354.243 266.848 354.243 265.344V261.48C354.243 259.96 354.643 258.76 355.443 257.88C356.243 257 357.307 256.56 358.635 256.56C359.723 256.56 360.595 256.856 361.251 257.448C361.907 258.04 362.235 258.832 362.235 259.824L361.803 259.32H362.283L362.235 256.32V252.48H364.395V270H362.235V267.48H361.803L362.235 266.976C362.235 267.984 361.907 268.784 361.251 269.376C360.595 269.952 359.723 270.24 358.635 270.24ZM359.355 268.368C360.251 268.368 360.955 268.088 361.467 267.528C361.979 266.968 362.235 266.192 362.235 265.2V261.6C362.235 260.608 361.979 259.832 361.467 259.272C360.955 258.712 360.251 258.432 359.355 258.432C358.443 258.432 357.723 258.704 357.195 259.248C356.667 259.792 356.403 260.576 356.403 261.6V265.2C356.403 266.224 356.667 267.008 357.195 267.552C357.723 268.096 358.443 268.368 359.355 268.368ZM375.354 259.68L375.066 254.64V252.48H377.394V254.64L377.13 259.68H375.354ZM370.482 259.68L370.194 254.64V252.48H372.522V254.64L372.258 259.68H370.482Z" fill="#CD7036"/>
<path d="M202.666 195.68L202.378 190.64V188.48H204.706V190.64L204.442 195.68H202.666ZM197.794 195.68L197.506 190.64V188.48H199.834V190.64L199.57 195.68H197.794ZM216.265 206.24C215.177 206.24 214.305 205.952 213.649 205.376C212.993 204.784 212.665 203.984 212.665 202.976L213.097 203.48H212.665V206H210.505V188.48H212.665V192.32L212.617 195.32H213.097L212.665 195.824C212.665 194.832 212.993 194.04 213.649 193.448C214.321 192.856 215.193 192.56 216.265 192.56C217.593 192.56 218.657 193 219.457 193.88C220.257 194.76 220.657 195.96 220.657 197.48V201.344C220.657 202.848 220.257 204.04 219.457 204.92C218.657 205.8 217.593 206.24 216.265 206.24ZM215.545 204.368C216.457 204.368 217.177 204.096 217.705 203.552C218.233 203.008 218.497 202.224 218.497 201.2V197.6C218.497 196.576 218.233 195.792 217.705 195.248C217.177 194.704 216.457 194.432 215.545 194.432C214.665 194.432 213.961 194.712 213.433 195.272C212.921 195.832 212.665 196.608 212.665 197.6V201.2C212.665 202.192 212.921 202.968 213.433 203.528C213.961 204.088 214.665 204.368 215.545 204.368ZM229.888 206.192C228.832 206.192 227.92 205.992 227.152 205.592C226.384 205.192 225.784 204.616 225.352 203.864C224.936 203.096 224.728 202.192 224.728 201.152V197.648C224.728 196.592 224.936 195.688 225.352 194.936C225.784 194.184 226.384 193.608 227.152 193.208C227.92 192.808 228.832 192.608 229.888 192.608C230.944 192.608 231.856 192.808 232.624 193.208C233.392 193.608 233.984 194.184 234.4 194.936C234.832 195.688 235.048 196.584 235.048 197.624V201.152C235.048 202.192 234.832 203.096 234.4 203.864C233.984 204.616 233.392 205.192 232.624 205.592C231.856 205.992 230.944 206.192 229.888 206.192ZM229.888 204.272C230.832 204.272 231.568 204.008 232.096 203.48C232.624 202.952 232.888 202.176 232.888 201.152V197.648C232.888 196.624 232.624 195.848 232.096 195.32C231.568 194.792 230.832 194.528 229.888 194.528C228.96 194.528 228.224 194.792 227.68 195.32C227.152 195.848 226.888 196.624 226.888 197.648V201.152C226.888 202.176 227.152 202.952 227.68 203.48C228.224 204.008 228.96 204.272 229.888 204.272ZM244.254 206.24C242.734 206.24 241.518 205.792 240.606 204.896C239.694 203.984 239.238 202.752 239.238 201.2V192.8H241.398V201.2C241.398 202.192 241.654 202.968 242.166 203.528C242.678 204.072 243.374 204.344 244.254 204.344C245.15 204.344 245.854 204.072 246.366 203.528C246.894 202.968 247.158 202.192 247.158 201.2V192.8H249.318V201.2C249.318 202.752 248.854 203.984 247.926 204.896C246.998 205.792 245.774 206.24 244.254 206.24ZM253.677 206V192.8H255.837V195.32H256.293L255.837 195.824C255.837 194.784 256.149 193.984 256.773 193.424C257.397 192.848 258.261 192.56 259.365 192.56C260.693 192.56 261.749 192.968 262.533 193.784C263.317 194.6 263.709 195.712 263.709 197.12V206H261.549V197.36C261.549 196.416 261.293 195.696 260.781 195.2C260.285 194.688 259.605 194.432 258.741 194.432C257.845 194.432 257.133 194.704 256.605 195.248C256.093 195.792 255.837 196.576 255.837 197.6V206H253.677ZM272.291 206.24C270.979 206.24 269.915 205.8 269.099 204.92C268.299 204.04 267.899 202.848 267.899 201.344V197.48C267.899 195.96 268.299 194.76 269.099 193.88C269.899 193 270.963 192.56 272.291 192.56C273.379 192.56 274.251 192.856 274.907 193.448C275.563 194.04 275.891 194.832 275.891 195.824L275.459 195.32H275.939L275.891 192.32V188.48H278.051V206H275.891V203.48H275.459L275.891 202.976C275.891 203.984 275.563 204.784 274.907 205.376C274.251 205.952 273.379 206.24 272.291 206.24ZM273.011 204.368C273.907 204.368 274.611 204.088 275.123 203.528C275.635 202.968 275.891 202.192 275.891 201.2V197.6C275.891 196.608 275.635 195.832 275.123 195.272C274.611 194.712 273.907 194.432 273.011 194.432C272.099 194.432 271.379 194.704 270.851 195.248C270.323 195.792 270.059 196.576 270.059 197.6V201.2C270.059 202.224 270.323 203.008 270.851 203.552C271.379 204.096 272.099 204.368 273.011 204.368ZM286.298 206.24C284.906 206.24 283.81 205.888 283.01 205.184C282.21 204.464 281.81 203.496 281.81 202.28C281.81 201.048 282.21 200.08 283.01 199.376C283.81 198.672 284.89 198.32 286.25 198.32H290.33V197C290.33 196.184 290.082 195.56 289.586 195.128C289.106 194.68 288.418 194.456 287.522 194.456C286.738 194.456 286.082 194.624 285.554 194.96C285.026 195.28 284.722 195.72 284.642 196.28H282.482C282.626 195.144 283.162 194.24 284.09 193.568C285.018 192.896 286.178 192.56 287.57 192.56C289.09 192.56 290.29 192.952 291.17 193.736C292.05 194.52 292.49 195.584 292.49 196.928V206H290.378V203.48H290.018L290.378 203.12C290.378 204.08 290.002 204.84 289.25 205.4C288.514 205.96 287.53 206.24 286.298 206.24ZM286.826 204.536C287.85 204.536 288.69 204.28 289.346 203.768C290.002 203.256 290.33 202.6 290.33 201.8V199.928H286.298C285.578 199.928 285.01 200.128 284.594 200.528C284.178 200.928 283.97 201.472 283.97 202.16C283.97 202.896 284.218 203.48 284.714 203.912C285.226 204.328 285.93 204.536 286.826 204.536ZM297.305 206V192.8H299.417V195.32H299.921L299.225 196.88C299.225 195.456 299.529 194.384 300.137 193.664C300.761 192.928 301.681 192.56 302.897 192.56C304.289 192.56 305.393 193 306.209 193.88C307.041 194.744 307.457 195.92 307.457 197.408V198.2H305.297V197.6C305.297 196.56 305.041 195.768 304.529 195.224C304.033 194.664 303.321 194.384 302.393 194.384C301.481 194.384 300.761 194.664 300.233 195.224C299.721 195.784 299.465 196.576 299.465 197.6V206H297.305ZM313.303 210.32L315.247 205.184L310.351 192.8H312.751L315.823 200.96C315.935 201.232 316.039 201.56 316.135 201.944C316.231 202.312 316.311 202.624 316.375 202.88C316.439 202.624 316.519 202.312 316.615 201.944C316.711 201.56 316.807 201.232 316.903 200.96L319.783 192.8H322.111L315.607 210.32H313.303ZM325.006 206V192.8H326.902V194.384H327.334L326.998 194.96C326.998 194.224 327.19 193.64 327.574 193.208C327.974 192.776 328.51 192.56 329.182 192.56C329.918 192.56 330.486 192.832 330.886 193.376C331.286 193.92 331.486 194.688 331.486 195.68L330.838 194.384H331.846L331.39 194.96C331.39 194.224 331.59 193.64 331.99 193.208C332.406 192.776 332.95 192.56 333.622 192.56C334.454 192.56 335.094 192.872 335.542 193.496C336.006 194.12 336.238 194.944 336.238 195.968V206H334.246V195.944C334.246 195.4 334.126 194.976 333.886 194.672C333.662 194.368 333.326 194.216 332.878 194.216C332.446 194.216 332.102 194.368 331.846 194.672C331.606 194.96 331.486 195.376 331.486 195.92V206H329.758V195.944C329.758 195.384 329.63 194.96 329.374 194.672C329.134 194.368 328.79 194.216 328.342 194.216C327.894 194.216 327.558 194.368 327.334 194.672C327.11 194.96 326.998 195.376 326.998 195.92V206H325.006ZM346.813 206C346.045 206 345.373 205.848 344.797 205.544C344.221 205.24 343.773 204.808 343.453 204.248C343.133 203.688 342.973 203.032 342.973 202.28V190.448H338.533V188.48H345.133V202.28C345.133 202.824 345.285 203.256 345.589 203.576C345.893 203.88 346.301 204.032 346.813 204.032H351.013V206H346.813ZM360.963 195.68L360.675 190.64V188.48H363.003V190.64L362.739 195.68H360.963ZM356.091 195.68L355.803 190.64V188.48H358.131V190.64L357.867 195.68H356.091ZM245.838 227.68L245.55 222.64V220.48H247.878V222.64L247.614 227.68H245.838ZM240.966 227.68L240.678 222.64V220.48H243.006V222.64L242.742 227.68H240.966ZM259.437 238.24C258.349 238.24 257.477 237.952 256.821 237.376C256.165 236.784 255.837 235.984 255.837 234.976L256.269 235.48H255.837V238H253.677V220.48H255.837V224.32L255.789 227.32H256.269L255.837 227.824C255.837 226.832 256.165 226.04 256.821 225.448C257.493 224.856 258.365 224.56 259.437 224.56C260.765 224.56 261.829 225 262.629 225.88C263.429 226.76 263.829 227.96 263.829 229.48V233.344C263.829 234.848 263.429 236.04 262.629 236.92C261.829 237.8 260.765 238.24 259.437 238.24ZM258.717 236.368C259.629 236.368 260.349 236.096 260.877 235.552C261.405 235.008 261.669 234.224 261.669 233.2V229.6C261.669 228.576 261.405 227.792 260.877 227.248C260.349 226.704 259.629 226.432 258.717 226.432C257.837 226.432 257.133 226.712 256.605 227.272C256.093 227.832 255.837 228.608 255.837 229.6V233.2C255.837 234.192 256.093 234.968 256.605 235.528C257.133 236.088 257.837 236.368 258.717 236.368ZM271.907 238.24C270.515 238.24 269.419 237.888 268.619 237.184C267.819 236.464 267.419 235.496 267.419 234.28C267.419 233.048 267.819 232.08 268.619 231.376C269.419 230.672 270.499 230.32 271.859 230.32H275.939V229C275.939 228.184 275.691 227.56 275.195 227.128C274.715 226.68 274.027 226.456 273.131 226.456C272.347 226.456 271.691 226.624 271.163 226.96C270.635 227.28 270.331 227.72 270.251 228.28H268.091C268.235 227.144 268.771 226.24 269.699 225.568C270.627 224.896 271.787 224.56 273.179 224.56C274.699 224.56 275.899 224.952 276.779 225.736C277.659 226.52 278.099 227.584 278.099 228.928V238H275.987V235.48H275.627L275.987 235.12C275.987 236.08 275.611 236.84 274.859 237.4C274.123 237.96 273.139 238.24 271.907 238.24ZM272.435 236.536C273.459 236.536 274.299 236.28 274.955 235.768C275.611 235.256 275.939 234.6 275.939 233.8V231.928H271.907C271.187 231.928 270.619 232.128 270.203 232.528C269.787 232.928 269.579 233.472 269.579 234.16C269.579 234.896 269.827 235.48 270.323 235.912C270.835 236.328 271.539 236.536 272.435 236.536ZM281.834 238V224.8H283.73V226.384H284.162L283.826 226.96C283.826 226.224 284.018 225.64 284.402 225.208C284.802 224.776 285.338 224.56 286.01 224.56C286.746 224.56 287.314 224.832 287.714 225.376C288.114 225.92 288.314 226.688 288.314 227.68L287.666 226.384H288.674L288.218 226.96C288.218 226.224 288.418 225.64 288.818 225.208C289.234 224.776 289.778 224.56 290.45 224.56C291.282 224.56 291.922 224.872 292.37 225.496C292.834 226.12 293.066 226.944 293.066 227.968V238H291.074V227.944C291.074 227.4 290.954 226.976 290.714 226.672C290.49 226.368 290.154 226.216 289.706 226.216C289.274 226.216 288.93 226.368 288.674 226.672C288.434 226.96 288.314 227.376 288.314 227.92V238H286.586V227.944C286.586 227.384 286.458 226.96 286.202 226.672C285.962 226.368 285.618 226.216 285.17 226.216C284.722 226.216 284.386 226.368 284.162 226.672C283.938 226.96 283.826 227.376 283.826 227.92V238H281.834ZM303.641 238C302.873 238 302.201 237.848 301.625 237.544C301.049 237.24 300.601 236.808 300.281 236.248C299.961 235.688 299.801 235.032 299.801 234.28V222.448H295.361V220.48H301.961V234.28C301.961 234.824 302.113 235.256 302.417 235.576C302.721 235.88 303.129 236.032 303.641 236.032H307.841V238H303.641ZM317.791 227.68L317.503 222.64V220.48H319.831V222.64L319.567 227.68H317.791ZM312.919 227.68L312.631 222.64V220.48H314.959V222.64L314.695 227.68H312.919Z" fill="#658B1F"/>
<path d="M416.702 270.24C415.646 270.24 414.718 270.032 413.918 269.616C413.134 269.184 412.526 268.592 412.094 267.84C411.662 267.088 411.446 266.208 411.446 265.2H413.606C413.606 266.176 413.878 266.944 414.422 267.504C414.982 268.048 415.75 268.32 416.726 268.32C417.718 268.32 418.486 268.032 419.03 267.456C419.574 266.88 419.846 266.128 419.846 265.2V263.952C419.846 262.96 419.574 262.192 419.03 261.648C418.486 261.104 417.718 260.832 416.726 260.832H414.926V258.672L419.27 254.448H412.166V252.48H421.454V254.64L416.774 259.176V258.912C418.374 258.912 419.646 259.368 420.59 260.28C421.534 261.192 422.006 262.416 422.006 263.952V265.2C422.006 266.208 421.782 267.088 421.334 267.84C420.902 268.592 420.286 269.184 419.486 269.616C418.686 270.032 417.758 270.24 416.702 270.24Z" fill="#6E56CA"/>
</svg>
